<svg id="svg" xmlns="http://www.w3.org/2000/svg" xmlns:xlink="http://www.w3.org/1999/xlink" viewBox="0 0 400 290">
  <path d="M135.6 22.9C135.3 24.2 127.3 69.2 127.3 69.6 127.3 69.7 149.4 69.8 176.4 69.8 205.5 69.8 228 70 231.6 70.3 276.1 73.8 287.2 95.2 273 149.4 265.2 178.8 252.4 192.9 227.3 199.5 213.6 203.2 210.3 203.3 153.3 203.3L104.1 203.3 103.8 204.4C103.5 205.8 95.5 250.8 95.5 251.1 95.5 251.9 222.7 251 229 250.2 287.7 242.6 322.7 204 333.9 134.4 344.3 70.6 325.4 35.2 275.5 25 261.3 22.1 263.8 22.2 197 22L135.9 21.8 135.6 22.9M81.5 113.4C69.4 115.8 62.5 123.3 58.7 138.3 56.9 145.3 53.7 159.2 53.7 160.1 53.7 161.1 166.7 160.5 170.5 159.5 181.4 156.5 188 149.8 191.4 138 192.4 134.6 196.4 117.6 196.9 114.4L197.3 112.6 141 112.6C94 112.7 84.3 112.8 81.5 113.4" fill="#000"/>
</svg>
